<?xml version="1.0" encoding="utf-8"?>
<!-- Generator: Adobe Illustrator 20.1.0, SVG Export Plug-In . SVG Version: 6.00 Build 0)  -->
<svg version="1.1" id="图层_1" xmlns="http://www.w3.org/2000/svg" xmlns:xlink="http://www.w3.org/1999/xlink" x="0px" y="0px"
	 viewBox="0 0 181 181" style="enable-background:new 0 0 181 181;" xml:space="preserve">
<style type="text/css">
	.st0{fill:#FFFFFF;}
</style>
<rect class="st0" width="181" height="181"/>
<g transform="translate(0,0)">
	<g transform="translate(0,0)">
		<g>
			<g>
				<path d="M67.6,74.3l-20.9-12V38.2l20.9-12l20.9,12v24.2L67.6,74.3z M52.6,58.9l15,8.7l15-8.7V41.5l-15-8.7l-15,8.7V58.9z
					 M113.4,74.3l-20.8-12V38.2l20.8-12l20.8,12v24.2L113.4,74.3z M98.4,58.9l15,8.7l15-8.7V41.5l-15-8.7l-15,8.7
					C98.4,41.5,98.4,58.9,98.4,58.9z"/>
				<path d="M122.1,54.7c-1.6,0-2.9-1.3-2.9-2.9l0,0v-5.2l-4.5-2.6c-1.4-0.8-1.9-2.6-1.1-4s2.6-1.9,4-1.1l7.4,4.3v8.6
					C125.1,53.3,123.8,54.6,122.1,54.7C122.2,54.7,122.1,54.7,122.1,54.7z M76.3,54.7c-1.6,0-2.9-1.3-2.9-2.9l0,0v-5.2L68.9,44
					c-1.4-0.8-1.9-2.6-1.1-4s2.6-1.9,4-1.1l0,0l7.5,4.3v8.6C79.2,53.3,77.9,54.6,76.3,54.7L76.3,54.7z M90.5,114.2l-20.9-12V78.1
					l20.9-12l20.8,12v24.1L90.5,114.2z M75.5,98.8l15,8.7l15-8.7V81.5l-15-8.7l-15,8.7V98.8z M136.3,114.2l-20.9-12V78.1l20.9-12
					l20.9,12v24.1L136.3,114.2z M121.3,98.8l15,8.7l15-8.7V81.5l-15-8.7l-15,8.7V98.8z"/>
				<path d="M145.1,94.6c-1.6,0-2.9-1.3-2.9-2.9l0,0v-5.2l-4.5-2.6c-1.4-0.8-2-2.5-1.2-3.9s2.5-2,3.9-1.2c0.1,0,0.1,0.1,0.2,0.1
					l7.4,4.3v8.6C148,93.3,146.7,94.6,145.1,94.6L145.1,94.6z M99.2,94.6c-1.6,0-2.9-1.3-3-2.9l0,0v-5.2l-4.5-2.6
					c-1.4-0.7-2-2.5-1.3-3.9s2.5-2,3.9-1.3c0.1,0.1,0.2,0.1,0.3,0.2l7.4,4.3v8.6C102,93.3,100.8,94.6,99.2,94.6z M44.7,115l-20.9-12
					V78.8l20.9-12l20.8,12v24.1L44.7,115z M29.7,99.5l15,8.7l15-8.7V82.3l-15-8.7l-15,8.7V99.5z"/>
				<path d="M53.3,95.3c-1.6,0-2.9-1.3-2.9-2.9l0,0v-5.2l-4.5-2.6c-1.4-0.8-1.9-2.6-1.1-4c0.8-1.4,2.6-1.9,4-1.1l0,0l7.4,4.3v8.6
					C56.2,94,54.9,95.3,53.3,95.3L53.3,95.3z M67.6,154.9l-20.9-12v-24.1l20.9-12l20.9,12v24.1L67.6,154.9z M52.6,139.5l15,8.7
					l15-8.7v-17.4l-15-8.7l-15,8.7V139.5z M113.4,154.9l-20.8-12v-24.1l20.9-12l20.8,12v24.1L113.4,154.9z M98.4,139.5l15,8.7
					l15-8.7v-17.4l-15-8.7l-15,8.7C98.4,122.1,98.4,139.5,98.4,139.5z"/>
				<path d="M122.1,135.2c-1.6,0-2.9-1.3-2.9-2.9l0,0v-5.2l-4.5-2.6c-1.4-0.8-1.9-2.6-1.1-4s2.6-1.9,4-1.1l0,0l7.4,4.3v8.6
					C125,133.9,123.7,135.2,122.1,135.2L122.1,135.2z M76.3,135.2c-1.6,0-2.9-1.3-2.9-2.9l0,0v-5.2l-4.5-2.6c-1.4-0.9-1.8-2.7-0.9-4
					c0.8-1.3,2.4-1.7,3.8-1l7.4,4.3v8.6C79.2,133.9,77.9,135.2,76.3,135.2L76.3,135.2z"/>
			</g>
		</g>
	</g>
</g>
</svg>
