<svg data-v-73fdaaa2="" version="1.0" 
  xmlns="http://www.w3.org/2000/svg" 
  xmlns:xlink="http://www.w3.org/1999/xlink" width="100%" height="100%" viewBox="0 0 340.000000 250.000000" preserveAspectRatio="xMidYMid meet" color-interpolation-filters="sRGB" class="el-tooltip" style="margin: auto;">
  <rect data-v-73fdaaa2="" x="0" y="0" width="100%" height="100%" fill="#fff" fill-opacity="1"></rect>
  <g data-v-73fdaaa2="" fill="#231f20" class="icon-svg-group iconsvg" transform="translate(87.55999755859375,70.77030181884766)">
    <g class="iconsvg-imagesvg" transform="translate(56.44000244140625,0)">
      <rect fill="#231f20" fill-opacity="0" stroke-width="2" x="0" y="0" width="52" height="50.17940018998454"></rect>
      <svg filter="url(#colors4697910881)" x="0" y="0" width="52" height="50.17940018998454" class="imagesvg-svg">
        <svg xmlns="http://www.w3.org/2000/svg" viewBox="0 0 73.69 71.11">
          <g>
            <g fill="#000000">
              <path d="M24.18 26.6L12.66 20V6.65L24.18 0 35.7 6.65V20zm-8.29-8.51l8.29 4.79 8.29-4.79V8.51l-8.29-4.79-8.29 4.79zM49.51 26.6L38 20V6.65L49.51 0 61 6.65V20zm-8.29-8.51l8.29 4.79 8.3-4.79V8.51l-8.3-4.79-8.29 4.79z"></path>
              <path d="M54.31 15.77a1.61 1.61 0 0 1-1.61-1.61v-2.89l-2.5-1.44A1.61 1.61 0 1 1 51.81 7l4.11 2.37v4.75a1.61 1.61 0 0 1-1.61 1.65zM29 15.77a1.61 1.61 0 0 1-1.61-1.61v-2.89l-2.5-1.44A1.61 1.61 0 1 1 26.47 7l4.12 2.37v4.75A1.61 1.61 0 0 1 29 15.77zM36.85 48.65L25.32 42V28.7l11.53-6.65 11.51 6.65V42zm-8.3-8.51l8.3 4.79 8.29-4.79v-9.58l-8.29-4.79-8.3 4.79zM62.17 48.65L50.65 42V28.7l11.52-6.65 11.52 6.65V42zm-8.29-8.51l8.29 4.79 8.3-4.79v-9.58l-8.3-4.79-8.29 4.79z"></path>
              <path d="M67 37.82a1.61 1.61 0 0 1-1.61-1.61v-2.89l-2.5-1.45a1.61 1.61 0 1 1 1.62-2.78l4.1 2.37v4.75A1.61 1.61 0 0 1 67 37.82zM41.63 37.82A1.62 1.62 0 0 1 40 36.21v-2.89l-2.49-1.45a1.61 1.61 0 1 1 1.61-2.78l4.11 2.37v4.75a1.62 1.62 0 0 1-1.6 1.61zM11.52 49.07L0 42.42V29.11l11.52-6.65L23 29.11v13.31zm-8.29-8.52l8.29 4.8 8.29-4.8V31l-8.29-4.79L3.23 31z"></path>
              <path d="M16.31 38.23a1.61 1.61 0 0 1-1.61-1.61v-2.89l-2.5-1.44a1.61 1.61 0 0 1 1.61-2.79l4.11 2.37v4.75a1.61 1.61 0 0 1-1.61 1.61zM24.18 71.11l-11.52-6.65v-13.3l11.52-6.65 11.52 6.65v13.3zm-8.3-8.51l8.3 4.79 8.29-4.79V53l-8.29-4.8-8.3 4.8zM49.51 71.11L38 64.46v-13.3l11.52-6.65L61 51.16v13.3zm-8.3-8.51l8.3 4.79 8.3-4.79V53l-8.3-4.8-8.3 4.8z"></path>
              <path d="M54.31 60.27a1.61 1.61 0 0 1-1.61-1.61v-2.88l-2.5-1.45a1.61 1.61 0 1 1 1.61-2.79l4.11 2.38v4.74a1.61 1.61 0 0 1-1.61 1.61zM29 60.27a1.61 1.61 0 0 1-1.61-1.61v-2.88l-2.49-1.45a1.61 1.61 0 0 1 1.6-2.79l4.11 2.38v4.74A1.61 1.61 0 0 1 29 60.27z"></path>
            </g>
          </g>
        </svg>
      </svg>
      <defs>
        <filter id="colors4697910881">
          <feColorMatrix type="matrix" values="0 0 0 0 0.13671875  0 0 0 0 0.12109375  0 0 0 0 0.125  0 0 0 1 0"></feColorMatrix>
        </filter>
      </defs>
    </g>
    <g transform="translate(0,57.17940139770508)">
      <g class="tp-name iconsvg-namesvg" transform="translate(21.160003662109375,0)">
        <g>
          <path transform="translate(-1.8,27.36)" d="M20.56-14L20.56-24.48L15.92-27.36L1.80-27.36L1.80-0.12L15.92-0.12L20.56-3L20.56-12.32L19.20-13.16ZM14.68-23.20C15.32-22.80 15.76-22.48 16.36-22.12L16.36-16.36L14.64-15.24L6-15.24L6-23.20ZM14.76-11.08C15.04-10.92 15.08-10.88 15.32-10.72C15.68-10.44 16-10.20 16.36-9.96L16.36-5.32L15.52-4.80C15.32-4.64 15-4.48 14.64-4.28L6-4.28L6-11.08ZM24.16-0.20L39.56-0.20L44.68-4.96L44.68-22.40L39.60-27.36L24.16-27.36ZM28.36-23.20L37.84-23.20C38.24-22.76 38.60-22.48 38.92-22.16C39.44-21.68 39.92-21.20 40.52-20.60L40.52-6.84C39.84-6.24 39.44-5.84 38.88-5.32C38.60-5.08 38.20-4.64 37.92-4.36L28.36-4.36ZM64.52-15.92L52.44-15.92L52.44-20.60L55-23.16L64.52-23.16L64.52-27.32L53.12-27.32L48.28-22.40L48.28-4.92L53.16-0.12L64.52-0.12L64.52-4.28L54.92-4.28C54.04-5.16 53.32-5.84 52.44-6.72L52.44-11.76L64.52-11.76ZM84.36-15.92L72.28-15.92L72.28-20.60L74.84-23.16L84.36-23.16L84.36-27.32L72.96-27.32L68.12-22.40L68.12-4.92L73-0.12L84.36-0.12L84.36-4.28L74.76-4.28C73.88-5.16 73.16-5.84 72.28-6.72L72.28-11.76L84.36-11.76ZM104.52-16.16L92.12-16.16L92.12-20.76C92.60-21.32 92.96-21.72 93.40-22.24C93.60-22.48 93.96-22.84 94.24-23.16L104.52-23.16L104.52-27.32L92.16-27.32L87.96-22.24L87.96-0.12L92.12-0.12L92.12-11.96L104.52-11.96ZM124.36-15.92L112.28-15.92L112.28-20.60L114.84-23.16L124.36-23.16L124.36-27.32L112.96-27.32L108.12-22.40L108.12-4.92L113-0.12L124.36-0.12L124.36-4.28L114.76-4.28C113.88-5.16 113.16-5.84 112.28-6.72L112.28-11.76L124.36-11.76Z"></path>
        </g>
      </g>
      <g class="tp-slogan iconsvg-slogansvg" transform="translate(0,34.36000061035156)">
        <g>
          <rect stroke-width="2" x="0" y="0" width="164.8800048828125" height="16.920000076293945"></rect>
          <g transform="translate(5,3)">
            <g fill="#fff">
              <path transform="translate(-0.703125,9.75)" d="M5.16-9.47L6.42-9.61L6.42-9.61Q6.52-9.28 6.70-8.48L6.70-8.48L6.70-8.48Q6.75-8.25 6.80-8.16L6.80-8.16L8.67-8.16L8.67-8.16Q9.70-8.16 10.69-8.30L10.69-8.30L10.69-8.30Q10.73-8.30 10.78-8.30L10.78-8.30L10.78-8.30Q10.69-8.06 10.69-7.22L10.69-7.22L10.69-7.03L10.69-7.03Q10.69-6.38 10.78-5.77L10.78-5.77L9.52-5.77L9.52-5.77Q9.52-5.86 9.56-6L9.56-6L9.56-6Q9.61-6.66 9.61-7.08L9.61-7.08L9.61-7.31L2.16-7.31L2.16-7.03L2.16-7.03Q2.16-6.19 2.25-5.72L2.25-5.72L1.03-5.72L1.03-5.72Q1.13-6.33 1.13-7.03L1.13-7.03L1.13-7.17L1.13-7.17Q1.13-7.78 1.03-8.20L1.03-8.20L1.03-8.20Q1.03-8.20 1.03-8.25L1.03-8.25L1.03-8.25Q1.88-8.16 2.72-8.16L2.72-8.16L5.58-8.16L5.58-8.16Q5.44-8.95 5.16-9.47L5.16-9.47ZM2.72-5.25L2.72-6.19L2.72-6.19Q3.66-6.09 4.59-6.09L4.59-6.09L7.64-6.09L7.64-6.09Q8.16-6.09 8.86-6.19L8.86-6.19L8.86-6.19Q9.05-6.19 9.09-6.19L9.09-6.19L9.09-5.16L9.09-5.16Q8.48-5.11 6.66-3.75L6.66-3.75L6.66-3.38L9.42-3.38L9.42-3.38Q10.59-3.38 11.11-3.47L11.11-3.47L11.11-2.39L11.11-2.39Q10.69-2.48 9.42-2.48L9.42-2.48L6.66-2.48L6.66 0L6.66 0Q6.94 0.84 4.55 1.03L4.55 1.03L4.55 1.03Q4.55 0.47 4.08-0.09L4.08-0.09L4.08-0.09Q5.81 0.09 5.63-0.56L5.63-0.56L5.63-2.48L2.39-2.48L2.39-2.48Q1.31-2.48 0.70-2.39L0.70-2.39L0.70-3.42L0.70-3.42Q1.31-3.33 2.39-3.33L2.39-3.33L5.63-3.33L5.63-4.22L5.63-4.22Q6.33-4.50 7.55-5.20L7.55-5.20L7.55-5.20Q7.64-5.30 7.73-5.34L7.73-5.34L4.64-5.34L4.64-5.34Q3.28-5.34 2.72-5.25L2.72-5.25ZM19.13-9.70L19.13-9.70L19.13-9.70Q20.20-9.70 20.44-9.61L20.44-9.61L20.44-9.61Q20.44-9.61 20.39-9.47L20.39-9.47L20.39-9.47Q20.16-9.09 20.16-8.77L20.16-8.77L20.16-8.20L21.28-8.20L21.28-8.20Q22.59-8.20 23.34-8.30L23.34-8.30L23.34-7.27L23.34-7.27Q23.30-7.27 22.92-7.27L22.92-7.27L22.92-7.27Q21.80-7.31 21.23-7.31L21.23-7.31L20.16-7.31L20.16-7.31Q20.16-6.61 20.30-6.09L20.30-6.09L20.30-6.09Q20.30-6.05 20.30-6.05L20.30-6.05L19.13-6.05L19.13-6.05Q19.13-6.09 19.17-6.33L19.17-6.33L19.17-6.33Q19.22-6.94 19.22-7.31L19.22-7.31L17.02-7.31L17.02-7.31Q17.02-6.75 17.11-6.23L17.11-6.23L17.11-6.23Q17.16-6.09 17.16-6.05L17.16-6.05L15.94-6.05L15.94-6.05Q15.94-6.09 15.98-6.33L15.98-6.33L15.98-6.33Q16.08-6.89 16.08-7.31L16.08-7.31L14.48-7.31L14.48-7.31Q12.98-7.31 12.61-7.27L12.61-7.27L12.61-8.30L12.61-8.30Q13.27-8.20 14.53-8.20L14.53-8.20L16.08-8.20L16.08-8.91L16.08-8.91Q16.08-9.23 16.03-9.56L16.03-9.56L16.03-9.56Q15.98-9.70 15.98-9.75L15.98-9.75L15.98-9.75Q17.20-9.75 17.30-9.61L17.30-9.61L17.30-9.61Q17.30-9.56 17.25-9.52L17.25-9.52L17.25-9.52Q17.02-9.23 17.02-8.86L17.02-8.86L17.02-8.20L19.22-8.20L19.22-8.81L19.22-8.81Q19.22-9.38 19.13-9.70ZM15.84-5.34L20.44-5.34L20.44-5.34Q21.38-5.34 21.98-5.44L21.98-5.44L21.98-5.44Q21.89-3.94 21.80-2.48L21.80-2.48L21.80-2.48Q21.80-2.39 21.80-2.11L21.80-2.11L21.80-2.11Q21.84-1.27 21.66-1.03L21.66-1.03L21.66-1.03Q21.05-0.56 19.55-0.38L19.55-0.38L19.55-0.38Q19.36-1.22 18.94-1.64L18.94-1.64L18.94-1.64Q18.80-1.64 19.55-1.59L19.55-1.59L19.55-1.59Q19.83-1.59 20.06-1.59L20.06-1.59L20.06-1.59Q20.48-1.59 20.67-1.73L20.67-1.73L20.67-1.73Q20.72-1.78 20.77-2.16L20.77-2.16L20.77-2.16Q20.81-2.30 20.81-2.39L20.81-2.39L20.91-4.45L17.63-4.45L17.63-0.47L17.63-0.47Q17.63 0.14 17.67 0.80L17.67 0.80L17.67 0.80Q17.67 1.08 17.67 1.17L17.67 1.17L16.59 1.17L16.59 1.17Q16.64 0.89 16.64-0.52L16.64-0.52L16.64-4.45L15.84-4.45L15.84-4.45Q14.20-4.45 13.64-4.36L13.64-4.36L13.64-5.44L13.64-5.44Q14.48-5.34 15.84-5.34L15.84-5.34ZM32.20-9.33L32.20-9.33L32.20-9.33Q33.33-9.28 33.33-9.09L33.33-9.09L33.33-9.09Q33.33-9 33.23-8.91L33.23-8.91L33.23-8.91Q33.14-8.72 33.14-8.58L33.14-8.58L33.09-5.53L33.09-5.53Q33.70-6.70 34.03-7.97L34.03-7.97L35.11-7.50L35.11-7.50Q34.55-6.09 33.89-5.06L33.89-5.06L33.09-5.39L33.09-4.45L33.09-4.45Q33.52-4.17 34.59-3.23L34.59-3.23L34.59-3.23Q34.83-3 34.97-2.91L34.97-2.91L34.22-2.16L34.22-2.16Q34.17-2.20 34.08-2.34L34.08-2.34L34.08-2.34Q33.70-2.91 33.05-3.56L33.05-3.56L33.05-1.17L33.05-1.17Q32.95 0 33.56-0.19L33.56-0.19L33.56-0.19Q34.36-0.14 34.36-1.45L34.36-1.45L34.36-1.45Q34.88-0.98 35.34-0.80L35.34-0.80L35.34-0.80Q34.88 0.70 34.08 0.61L34.08 0.61L33.38 0.61L33.38 0.61Q32.06 0.70 32.16-0.33L32.16-0.33L32.20-8.53L32.20-8.53Q32.20-8.72 32.20-9.33ZM27.84-6.05L27.84-7.92L26.25-7.92L26.25-6.05L27.84-6.05ZM28.83-7.55L29.67-7.73L29.67-7.73Q30-7.03 30.33-5.58L30.33-5.58L29.34-5.34L29.34-5.34Q29.20-6.47 28.83-7.55L28.83-7.55ZM30.47-9.23L30.47-9.23L30.47-9.23Q30.94-9.23 31.50-9.14L31.50-9.14L31.50-9.14Q31.69-9.09 31.59-8.86L31.59-8.86L31.59-8.86Q31.45-8.63 31.45-8.48L31.45-8.48L31.41-4.36L31.41-4.36Q31.41-4.13 31.36-3.70L31.36-3.70L31.36-3.70Q31.31-1.78 30.80-0.98L30.80-0.98L30.80-0.98Q30.28-0.19 28.78 0.84L28.78 0.84L28.78 0.84Q28.31 0.28 27.75 0.05L27.75 0.05L27.75 0.05Q29.11-0.19 29.86-1.22L29.86-1.22L29.86-1.22Q30.52-2.06 30.61-3.66L30.61-3.66L29.11-2.11L28.41-2.91L28.41-2.91Q29.58-3.56 30.61-4.55L30.61-4.55L30.61-7.08L30.61-7.08Q30.61-8.06 30.52-9.05L30.52-9.05L30.52-9.05Q30.47-9.19 30.47-9.23ZM28.97-4.08L28.97-3.28L28.97-3.28Q28.78-3.33 28.22-3.33L28.22-3.33L27.56-3.33L27.56-1.22L27.56-1.22Q27.75-1.27 28.22-1.41L28.22-1.41L28.22-1.41Q28.64-1.55 28.97-1.64L28.97-1.64L28.97-1.64Q28.83-1.27 28.88-0.70L28.88-0.70L28.88-0.70Q25.92-0.14 24.80 0.23L24.80 0.23L24.80 0.23Q24.61-0.38 24.47-0.75L24.47-0.75L24.47-0.75Q25.27-0.84 25.13-0.84L25.13-0.84L25.13-3.38L25.08-4.45L25.08-4.45Q25.69-4.41 26.02-4.36L26.02-4.36L26.02-4.36Q26.16-4.31 26.06-4.17L26.06-4.17L26.06-4.17Q25.92-3.98 25.92-3.84L25.92-3.84L25.92-0.89L26.72-1.08L26.72-4.08L26.72-5.30L26.39-5.30L26.39-5.30Q25.92-5.30 25.41-5.25L25.41-5.25L25.41-5.25Q25.45-5.77 25.45-6.14L25.45-6.14L25.45-7.78L25.45-7.78Q25.45-8.20 25.41-8.72L25.41-8.72L25.41-8.72Q25.83-8.67 26.44-8.67L26.44-8.67L27.61-8.67L27.61-8.67Q28.03-8.67 28.69-8.72L28.69-8.72L28.69-8.72Q28.64-8.20 28.64-7.78L28.64-7.78L28.64-6.19L28.64-6.19Q28.64-5.58 28.69-5.25L28.69-5.25L28.69-5.25Q28.22-5.30 27.80-5.30L27.80-5.30L27.56-5.30L27.56-4.03L28.17-4.03L28.17-4.03Q28.78-4.03 28.97-4.08L28.97-4.08ZM43.27-9.70L43.27-9.70L43.27-9.70Q44.58-9.61 44.77-9.42L44.77-9.42L44.77-9.42Q44.77-9.38 44.67-9.23L44.67-9.23L44.67-9.23Q44.58-9 44.53-8.86L44.53-8.86L44.53-8.86Q44.39-8.30 44.34-7.36L44.34-7.36L44.34-7.36Q44.34-7.13 44.34-6.98L44.34-6.98L45.61-6.98L45.61-6.98Q46.13-6.98 46.73-7.03L46.73-7.03L46.73-7.03Q46.92-7.03 46.97-7.03L46.97-7.03L46.97-7.03Q47.06-7.08 47.11-6.98L47.11-6.98L47.11-6.98Q46.59 0.38 46.31 0.05L46.31 0.05L46.31 0.05Q46.03 0.61 44.34 0.75L44.34 0.75L44.34 0.75Q44.39 0.28 43.97-0.38L43.97-0.38L43.97-0.38Q45.23-0.23 45.47-0.66L45.47-0.66L45.47-0.66Q45.75-0.94 45.98-6.09L45.98-6.09L44.30-6.09L44.30-6.09Q44.16-0.33 40.83 1.13L40.83 1.13L40.83 1.13Q40.55 0.70 39.66 0.28L39.66 0.28L39.66 0.28Q43.27-0.47 43.31-6.09L43.31-6.09L42.75-6.09L42.75-6.09Q42.23-6.09 41.77-5.95L41.77-5.95L41.77-5.95Q41.72-5.95 41.72-5.95L41.72-5.95L41.72-5.02L41.72-5.02Q41.72-5.02 41.63-5.02L41.63-5.02L41.63-5.02Q41.06-5.11 40.17-5.11L40.17-5.11L39.84-5.11L39.84-5.11Q39-2.67 38.30-1.59L38.30-1.59L40.64-2.25L40.64-2.25Q40.31-2.91 40.03-3.42L40.03-3.42L40.88-3.80L40.88-3.80Q41.53-2.67 42.05-1.36L42.05-1.36L41.11-0.84L41.11-0.84Q41.06-1.08 40.97-1.36L40.97-1.36L40.97-1.36Q40.97-1.36 40.92-1.45L40.92-1.45L40.92-1.45Q38.91-0.89 37.59-0.42L37.59-0.42L37.59-0.42Q37.31-0.33 37.27-0.33L37.27-0.33L36.75-1.36L36.75-1.36Q36.80-1.41 36.89-1.41L36.89-1.41L36.89-1.41Q37.78-1.69 38.77-5.06L38.77-5.06L38.30-5.06L38.30-5.06Q37.50-5.06 36.84-4.97L36.84-4.97L36.84-4.97Q36.70-4.97 36.70-4.97L36.70-4.97L36.70-6.05L36.70-6.05Q36.70-6.05 36.84-6.05L36.84-6.05L36.84-6.05Q37.50-5.95 38.30-5.95L38.30-5.95L40.08-5.95L40.08-5.95Q40.78-5.95 41.25-6.05L41.25-6.05L41.25-6.05Q41.34-6.05 41.34-6.05L41.34-6.05L41.34-7.03L41.34-7.03Q41.39-7.03 41.58-7.03L41.58-7.03L41.58-7.03Q42.19-6.94 42.75-6.94L42.75-6.94L43.36-6.94L43.36-6.94Q43.36-9.19 43.27-9.70ZM37.22-7.50L37.22-8.58L37.22-8.58Q37.22-8.58 37.36-8.58L37.36-8.58L37.36-8.58Q38.02-8.48 38.86-8.48L38.86-8.48L39.80-8.48L39.80-8.48Q40.69-8.48 41.34-8.58L41.34-8.58L41.34-8.58Q41.48-8.58 41.48-8.58L41.48-8.58L41.48-7.50L41.48-7.50Q41.44-7.50 41.34-7.50L41.34-7.50L41.34-7.50Q40.83-7.59 39.84-7.59L39.84-7.59L38.81-7.59L38.81-7.59Q38.06-7.59 37.41-7.50L37.41-7.50L37.41-7.50Q37.27-7.50 37.22-7.50L37.22-7.50ZM55.83-9.70L55.83-9.70L55.83-9.70Q56.91-9.52 57.09-9.28L57.09-9.28L57.09-9.28Q57.09-9.23 57-9.14L57-9.14L57-9.14Q56.81-9 56.77-8.86L56.77-8.86L56.77-8.86Q56.58-8.48 56.34-7.88L56.34-7.88L56.34-7.88Q56.16-7.41 56.06-7.22L56.06-7.22L58.31-7.22L58.31-7.22Q59.16-7.22 59.53-7.27L59.53-7.27L59.53-6.33L59.53-6.33Q59.20-6.38 58.41-6.38L58.41-6.38L58.22-6.38L58.22-6.38Q58.03-3.23 56.95-1.45L56.95-1.45L56.95-1.45Q57.80-0.42 59.63 0.28L59.63 0.28L59.63 0.28Q59.06 0.56 58.64 1.17L58.64 1.17L58.64 1.17Q56.81 0 56.30-0.70L56.30-0.70L56.30-0.70Q55.59 0.05 53.48 1.17L53.48 1.17L53.48 1.17Q53.44 1.13 53.39 1.08L53.39 1.08L53.39 1.08Q53.02 0.56 52.45 0.33L52.45 0.33L52.45 0.33Q54.47-0.14 55.78-1.50L55.78-1.50L55.78-1.50Q55.36-2.16 54.66-4.45L54.66-4.45L55.59-4.69L55.59-4.69Q55.78-3.56 56.34-2.20L56.34-2.20L56.34-2.20Q57.23-4.03 57.23-6.42L57.23-6.42L55.69-6.42L55.69-6.42Q55.13-5.39 54.94-5.06L54.94-5.06L54.94-5.06Q54.66-5.25 53.95-5.48L53.95-5.48L53.95-5.48Q55.27-7.31 55.83-9.70ZM51-9.42L52.03-9.61L52.03-9.61Q52.17-9.28 52.59-8.20L52.59-8.20L51.52-8.02L51.52-8.02Q51.33-8.72 51-9.42L51-9.42ZM48.89-6.80L48.89-7.78L48.89-7.78Q49.92-7.69 50.44-7.69L50.44-7.69L52.55-7.69L52.55-7.69Q53.67-7.69 54.38-7.78L54.38-7.78L54.38-6.75L54.38-6.75Q53.95-6.84 52.59-6.84L52.59-6.84L50.48-6.84L50.48-6.84Q49.41-6.84 48.89-6.80L48.89-6.80ZM50.44-6.52L50.44-6.52L51.33-5.91L51.33-5.91Q49.92-4.22 49.17-3.56L49.17-3.56L49.17-3.56Q48.89-3.89 48.38-4.13L48.38-4.13L48.38-4.13Q49.50-5.11 50.44-6.52ZM51.84-5.91L52.64-6.52L52.64-6.52Q53.72-5.58 54.52-4.73L54.52-4.73L53.67-4.08L53.67-4.08Q52.73-5.20 51.84-5.91L51.84-5.91ZM52.31-4.55L52.31-4.55L52.31-4.55Q53.30-4.17 53.39-3.98L53.39-3.98L53.39-3.98Q53.39-3.89 53.25-3.80L53.25-3.80L53.25-3.80Q53.11-3.66 53.06-3.52L53.06-3.52L53.06-3.52Q52.59-2.58 52.41-2.25L52.41-2.25L52.41-2.25Q53.34-1.36 53.81-0.84L53.81-0.84L52.92-0.23L52.92-0.23Q52.59-0.80 51.89-1.41L51.89-1.41L51.89-1.41Q51.09-0.28 49.22 0.70L49.22 0.70L49.22 0.70Q49.13 0.61 48.98 0.47L48.98 0.47L48.98 0.47Q48.66 0.19 48.28 0L48.28 0L48.28 0Q50.06-0.56 51.28-2.06L51.28-2.06L51.28-2.06Q50.30-3.09 49.64-3.47L49.64-3.47L50.34-4.13L50.34-4.13Q50.58-3.94 51.23-3.28L51.23-3.28L51.23-3.28Q51.56-3 51.75-2.81L51.75-2.81L51.75-2.81Q52.08-3.61 52.31-4.55ZM65.34-9.52L66.47-9.66L66.47-9.66Q66.61-9.23 66.75-8.48L66.75-8.48L68.95-8.48L68.95-8.48Q69.75-8.48 70.78-8.58L70.78-8.58L70.78-7.64L70.78-7.64Q70.13-7.73 68.95-7.73L68.95-7.73L65.53-7.73L65.53-7.73Q66.38-7.27 66.33-7.13L66.33-7.13L66.33-7.13Q66.28-7.08 66.19-7.03L66.19-7.03L66.19-7.03Q65.63-6.61 64.78-5.63L64.78-5.63L66.38-5.81L66.38-5.81Q66.70-6.23 67.17-6.89L67.17-6.89L67.17-6.89Q68.16-6.23 68.11-6.05L68.11-6.05L68.11-6.05Q68.11-6.05 68.06-6L68.06-6L68.06-6Q67.73-5.95 67.36-5.63L67.36-5.63L67.36-5.63Q67.17-5.48 66.28-4.69L66.28-4.69L66.28-4.69Q65.44-3.94 64.97-3.52L64.97-3.52L67.22-3.61L67.22-3.61Q66.94-4.03 66.70-4.31L66.70-4.31L67.55-4.73L67.55-4.73Q68.39-3.70 68.72-2.77L68.72-2.77L67.78-2.39L67.78-2.39Q67.55-2.91 67.45-3.05L67.45-3.05L66.47-3L66.47-1.69L69.42-1.69L69.42-1.69Q70.36-1.69 71.25-1.78L71.25-1.78L71.25-0.80L71.25-0.80Q70.50-0.89 69.42-0.89L69.42-0.89L66.47-0.89L66.47-0.56L66.47-0.56Q66.47 0.14 66.56 1.08L66.56 1.08L65.53 1.08L65.53 1.08Q65.63 0.14 65.63-0.56L65.63-0.56L65.63-0.89L62.44-0.89L62.44-0.89Q61.59-0.89 60.75-0.80L60.75-0.80L60.75-1.78L60.75-1.78Q61.69-1.69 62.44-1.69L62.44-1.69L65.63-1.69L65.63-2.91L65.63-2.91Q64.55-2.77 63.94-2.53L63.94-2.53L63.94-2.53Q63.75-3.19 63.61-3.56L63.61-3.56L63.61-3.56Q64.03-3.66 65.81-5.11L65.81-5.11L65.81-5.11Q65.86-5.16 65.91-5.20L65.91-5.20L65.91-5.20Q64.50-5.02 63.98-4.78L63.98-4.78L63.98-4.78Q63.94-4.73 63.89-4.73L63.89-4.73L63.89-4.73Q63.80-5.30 63.61-5.63L63.61-5.63L63.61-5.63Q64.73-6.14 65.30-7.73L65.30-7.73L62.91-7.73L62.91-7.73Q62.30-7.73 61.36-7.64L61.36-7.64L61.36-7.64Q61.45-7.64 61.17-7.64L61.17-7.64L61.17-8.58L61.17-8.58Q61.41-8.58 62.06-8.53L62.06-8.53L62.06-8.53Q62.67-8.48 62.86-8.48L62.86-8.48L65.72-8.48L65.72-8.48Q65.77-8.58 65.48-9.14L65.48-9.14L65.48-9.14Q65.39-9.38 65.34-9.52L65.34-9.52ZM69.70-7.22L69.70-7.22L70.41-6.47L70.41-6.47Q69.66-5.77 68.81-5.06L68.81-5.06L68.81-5.06Q68.63-5.34 68.11-5.67L68.11-5.67L68.11-5.67Q68.95-6.19 69.70-7.22ZM61.41-6.42L62.11-7.08L62.11-7.08Q63.19-6.33 63.56-5.95L63.56-5.95L62.91-5.39L62.91-5.39Q62.16-6.09 61.41-6.42L61.41-6.42ZM63.28-4.88L63.28-4.88L63.28-4.88Q63.33-4.41 63.66-3.98L63.66-3.98L63.66-3.98Q62.95-3.38 61.73-2.48L61.73-2.48L61.08-3.38L61.08-3.38Q61.97-3.80 63.28-4.88ZM68.30-4.13L68.95-4.83L68.95-4.83Q69.61-4.45 70.92-3.52L70.92-3.52L70.17-2.67L70.17-2.67Q69.70-3.28 68.30-4.13L68.30-4.13ZM82.36-8.30L82.36-8.30L82.36-7.22L82.36-7.22Q82.08-7.27 80.48-7.27L80.48-7.27L78.52-7.27L78.52-0.98L80.91-0.98L80.91-0.98Q82.41-0.98 83.20-1.08L83.20-1.08L83.20 0L83.20 0Q82.41-0.09 80.95-0.09L80.95-0.09L74.72-0.09L74.72-0.09Q73.31-0.09 72.80 0L72.80 0L72.80-1.08L72.80-1.08Q73.41-1.03 74.67-0.98L74.67-0.98L77.48-0.98L77.48-7.27L75.66-7.27L75.66-7.27Q74.39-7.27 73.69-7.17L73.69-7.17L73.69-8.30L73.69-8.30Q74.02-8.25 75.66-8.25L75.66-8.25L80.44-8.25L80.44-8.25Q81.98-8.25 82.36-8.30ZM88.55-9.47L88.55-9.47L88.55-9.47Q89.30-8.72 89.20-8.58L89.20-8.58L89.20-8.58Q89.16-8.53 89.02-8.53L89.02-8.53L89.02-8.53Q88.78-8.53 88.64-8.48L88.64-8.48L88.64-8.48Q88.55-8.48 88.31-8.44L88.31-8.44L88.31-8.44Q87.84-8.34 87.66-8.30L87.66-8.30L87.66-6.33L87.84-6.33L87.84-6.33Q88.73-6.33 89.06-6.38L89.06-6.38L89.06-5.48L89.06-5.48Q88.69-5.53 87.80-5.53L87.80-5.53L87.66-5.53L87.66-4.22L88.17-4.55L88.17-4.55Q88.64-3.98 89.16-3.19L89.16-3.19L88.31-2.77L88.31-2.77Q88.08-3.42 87.66-3.98L87.66-3.98L87.66-0.38L87.66-0.38Q87.66 0.66 87.70 0.94L87.70 0.94L86.67 0.94L86.67 0.94Q86.77 0.42 86.77-0.38L86.77-0.38L86.77-3.89L86.77-3.89Q86.20-2.53 85.27-1.08L85.27-1.08L85.27-1.08Q84.89-1.64 84.61-2.02L84.61-2.02L84.61-2.02Q85.59-2.77 86.77-5.53L86.77-5.53L86.16-5.53L86.16-5.53Q85.22-5.53 84.94-5.48L84.94-5.48L84.94-6.38L84.94-6.38Q85.27-6.33 86.16-6.33L86.16-6.33L86.77-6.33L86.77-8.11L86.77-8.11Q85.64-7.83 85.31-7.83L85.31-7.83L84.89-8.63L84.89-8.63Q86.67-8.77 88.55-9.47ZM90.70-8.11L90.70-6.47L93.61-6.47L93.61-8.11L90.70-8.11ZM89.34-3.75L89.34-4.78L89.34-4.78Q90.14-4.69 91.08-4.69L91.08-4.69L93.09-4.69L93.09-4.69Q93.70-4.69 94.83-4.78L94.83-4.78L94.83-3.75L94.83-3.75Q94.08-3.80 93.09-3.84L93.09-3.84L92.53-3.84L92.53-2.53L93.05-2.53L93.05-2.53Q93.66-2.53 94.69-2.63L94.69-2.63L94.69-1.69L94.69-1.69Q94.45-1.69 93.61-1.73L93.61-1.73L93.61-1.73Q93.19-1.73 93.09-1.73L93.09-1.73L92.53-1.73L92.53-0.23L93.38-0.23L93.38-0.23Q93.52-0.23 94.13-0.28L94.13-0.28L94.13-0.28Q95.06-0.33 95.34-0.33L95.34-0.33L95.34 0.56L95.34 0.56Q94.59 0.52 93.38 0.47L93.38 0.47L90.70 0.47L90.70 0.47Q89.63 0.52 88.83 0.56L88.83 0.56L88.83-0.33L88.83-0.33Q89.63-0.28 90.70-0.23L90.70-0.23L91.59-0.23L91.59-1.73L91.08-1.73L91.08-1.73Q89.86-1.73 89.44-1.69L89.44-1.69L89.44-2.63L89.44-2.63Q90.19-2.53 91.03-2.53L91.03-2.53L91.59-2.53L91.59-3.84L91.08-3.84L91.08-3.84Q90.09-3.84 89.34-3.75L89.34-3.75ZM89.67-9.05L89.67-9.05L89.67-9.05Q89.95-8.91 90.66-8.91L90.66-8.91L93.61-8.91L93.61-8.91Q94.17-8.91 94.69-9.05L94.69-9.05L94.69-9.05Q94.59-8.72 94.59-8.11L94.59-8.11L94.59-6.47L94.59-6.47Q94.59-5.86 94.69-5.53L94.69-5.53L94.69-5.53Q94.03-5.67 93.66-5.63L93.66-5.63L90.66-5.63L90.66-5.63Q90.05-5.63 89.67-5.53L89.67-5.53L89.67-5.53Q89.77-5.95 89.77-6.47L89.77-6.47L89.77-8.16L89.77-8.16Q89.77-8.48 89.67-9.05ZM98.95-9.47L99.94-9.75L99.94-9.75Q100.27-9.33 100.55-8.63L100.55-8.63L99.47-8.25L99.47-8.25Q99.28-9 98.95-9.47L98.95-9.47ZM103.22-8.95L103.22-8.95L103.22-8.95Q104.16-8.86 104.86-8.86L104.86-8.86L105.47-8.86L105.47-8.86Q105.75-8.86 106.45-8.91L106.45-8.91L106.45-8.91Q106.97-8.91 107.11-8.91L107.11-8.91L107.11-8.91Q107.16-8.91 107.16-8.81L107.16-8.81L107.16-8.81Q106.78-7.92 106.03-5.02L106.03-5.02L106.03-5.02Q107.72-3.05 107.48-1.64L107.48-1.64L107.48-1.64Q107.20-0.33 105.09-0.14L105.09-0.14L105.09-0.14Q105.09-0.84 104.67-1.41L104.67-1.41L104.67-1.41Q106.27-1.22 106.31-1.97L106.31-1.97L106.31-1.97Q106.41-3.47 105.09-4.73L105.09-4.73L105.09-4.73Q105.28-5.48 105.56-6.61L105.56-6.61L105.56-6.61Q105.80-7.64 105.89-8.02L105.89-8.02L104.20-8.02L104.20-0.89L104.20-0.89Q104.20 0.28 104.30 1.17L104.30 1.17L103.17 1.17L103.17 1.17Q103.27 0.28 103.27-0.89L103.27-0.89L103.27-7.17L103.27-7.17Q103.27-8.20 103.17-8.81L103.17-8.81L103.17-8.81Q103.17-8.95 103.22-8.95ZM102.66-8.30L102.66-8.30L102.66-7.36L102.66-7.36Q102.38-7.41 101.77-7.41L101.77-7.41L101.77-7.41Q101.30-7.41 99.66-7.41L99.66-7.41L99.66-7.41Q97.41-7.41 97.03-7.31L97.03-7.31L97.03-8.30L97.03-8.30Q98.02-8.20 98.77-8.20L98.77-8.20L100.73-8.20L100.73-8.20Q101.67-8.20 102.66-8.30ZM100.83-7.13L100.83-7.13L100.83-7.13Q102.05-6.84 102.05-6.70L102.05-6.70L102.05-6.70Q102-6.66 101.91-6.56L101.91-6.56L101.91-6.56Q101.44-6.23 101.02-5.30L101.02-5.30L101.02-5.30Q102-5.30 102.89-5.39L102.89-5.39L102.89-4.50L102.89-4.50Q102.70-4.50 102.14-4.50L102.14-4.50L102.14-4.50Q101.30-4.55 100.92-4.55L100.92-4.55L98.25-4.55L98.25-4.55Q97.13-4.55 96.61-4.50L96.61-4.50L96.61-5.39L96.61-5.39Q96.70-5.39 96.89-5.34L96.89-5.34L96.89-5.34Q97.50-5.30 98.25-5.30L98.25-5.30L100.22-5.30L100.22-5.30Q100.73-6.52 100.83-7.13ZM97.88-6.70L98.72-6.98L98.72-6.98Q99.09-6.42 99.33-5.81L99.33-5.81L98.39-5.44L98.39-5.44Q98.16-6.23 97.88-6.70L97.88-6.70ZM101.06-2.77L98.53-2.77L98.53-0.94L101.06-0.94L101.06-2.77ZM102.09-3.66L102.09-3.66L102.09-3.66Q102-3.14 102-2.48L102-2.48L102-0.14L102-0.14Q102 0.09 102.05 0.47L102.05 0.47L102.05 0.47Q102.05 0.61 102.05 0.70L102.05 0.70L100.97 0.70L100.97 0.70Q101.06 0.33 101.06-0.19L101.06-0.19L98.53-0.19L98.53-0.19Q98.53 0.47 98.58 0.89L98.58 0.89L97.45 0.89L97.45 0.89Q97.59 0.38 97.59-0.28L97.59-0.28L97.59-2.25L97.59-2.25Q97.59-3.23 97.55-3.66L97.55-3.66L97.55-3.66Q97.92-3.52 99.66-3.52L99.66-3.52L99.66-3.52Q101.11-3.52 101.91-3.66L101.91-3.66L101.91-3.66Q102.05-3.66 102.09-3.66ZM115.45-9.70L115.45-9.70L115.45-9.70Q116.39-9.56 116.67-9.33L116.67-9.33L116.67-9.33Q116.67-9.28 116.58-9.14L116.58-9.14L116.58-9.14Q116.16-8.72 115.69-7.92L115.69-7.92L117.19-7.92L117.19-7.92Q118.45-7.92 119.48-8.02L119.48-8.02L119.48-6.89L119.48-6.89Q118.97-6.98 117.19-6.98L117.19-6.98L110.63-6.98L110.63-6.98Q109.59-6.98 108.52-6.89L108.52-6.89L108.52-8.02L108.52-8.02Q109.83-7.92 110.58-7.92L110.58-7.92L112.17-7.92L112.17-7.92Q111.84-8.72 111.38-9.28L111.38-9.28L112.27-9.61L112.27-9.61Q112.73-9.05 113.20-8.30L113.20-8.30L112.31-7.92L114.70-7.92L114.70-7.92Q115.17-8.53 115.45-9.70ZM117.14-6.38L117.14-6.38L117.14-6.38Q118.36-6.38 118.41-6.23L118.41-6.23L118.41-6.23Q118.41-6.14 118.31-6L118.31-6L118.31-6Q118.17-5.72 118.17-5.39L118.17-5.39L118.17 0.19L118.17 0.19Q118.22 1.13 116.06 1.17L116.06 1.17L116.06 1.17Q116.06 0.61 115.64 0.05L115.64 0.05L115.64 0.05Q117.09 0.23 117.19-0.42L117.19-0.42L117.19-5.34L117.19-5.34Q117.19-5.77 117.14-6.38ZM114.98-5.81L114.98-5.81L114.98-5.81Q116.16-5.81 116.20-5.67L116.20-5.67L116.20-5.67Q116.20-5.58 116.16-5.39L116.16-5.39L116.16-5.39Q116.06-5.16 116.06-4.97L116.06-4.97L116.06-2.58L116.06-2.58Q116.06-1.45 116.11-0.94L116.11-0.94L114.98-0.94L114.98-0.94Q114.98-1.08 114.98-1.50L114.98-1.50L114.98-1.50Q115.03-2.20 115.03-2.63L115.03-2.63L115.03-5.11L115.03-5.11Q115.03-5.81 114.98-5.81ZM113.02-5.44L110.63-5.44L110.63-4.22L113.02-4.22L113.02-5.44ZM113.02-2.25L113.02-3.52L110.63-3.52L110.63-2.25L113.02-2.25ZM109.64-6.28L109.64-6.28L109.64-6.28Q110.30-6.19 110.72-6.23L110.72-6.23L112.92-6.23L112.92-6.23Q113.30-6.19 114-6.28L114-6.28L114-6.28Q113.86-5.86 113.91-5.58L113.91-5.58L113.91 0.05L113.91 0.05Q113.95 0.98 112.08 1.03L112.08 1.03L112.08 1.03Q112.08 0.38 111.61-0.05L111.61-0.05L111.61-0.05Q112.92 0.14 113.02-0.19L113.02-0.19L113.02-1.55L110.63-1.55L110.63-0.38L110.63-0.38Q110.63 0.42 110.77 0.98L110.77 0.98L109.59 0.98L109.59 0.98Q109.73 0.05 109.73-0.33L109.73-0.33L109.73-5.58L109.73-5.58Q109.73-5.86 109.64-6.28ZM127.36-9.47L127.36-9.47L127.36-9.47Q128.44-9.47 128.44-9.33L128.44-9.33L128.44-9.33Q128.44-9.28 128.44-9.19L128.44-9.19L128.44-9.19Q128.34-9 128.34-8.86L128.34-8.86L128.34-7.08L129.70-7.08L129.70-8.30L129.70-8.30Q129.70-8.77 129.66-8.91L129.66-8.91L129.66-8.91Q129.75-8.91 129.98-8.86L129.98-8.86L129.98-8.86Q130.78-8.86 130.73-8.72L130.73-8.72L130.73-8.72Q130.73-8.67 130.69-8.58L130.69-8.58L130.69-8.58Q130.59-8.39 130.59-7.97L130.59-7.97L130.59-7.41L130.59-7.41Q130.59-6.52 130.69-6.23L130.69-6.23L130.69-6.23Q129.70-6.33 128.63-6.33L128.63-6.33L126.94-6.33L126.94-6.33Q125.91-6.33 125.25-6.23L125.25-6.23L125.25-6.23Q125.34-6.75 125.34-7.59L125.34-7.59L125.34-7.59Q125.34-8.67 125.25-8.95L125.25-8.95L125.25-8.95Q126.28-8.95 126.33-8.81L126.33-8.81L126.33-8.81Q126.33-8.77 126.28-8.72L126.28-8.72L126.28-8.72Q126.23-8.53 126.23-8.34L126.23-8.34L126.23-7.08L127.45-7.08L127.45-8.67L127.45-8.67Q127.45-9.33 127.36-9.47ZM122.02-9L123-9.23L123-9.23Q123.23-8.81 123.66-7.55L123.66-7.55L122.58-7.27L122.58-7.27Q122.44-8.02 122.02-9L122.02-9ZM120.56-6.23L120.56-7.08L120.56-7.08Q120.66-7.08 121.03-7.08L121.03-7.08L121.03-7.08Q121.59-7.03 121.97-7.03L121.97-7.03L123.28-7.03L123.28-7.03Q124.31-7.08 124.83-7.13L124.83-7.13L124.83-6.23L124.83-6.23Q124.55-6.28 123.28-6.28L123.28-6.28L121.92-6.28L121.92-6.28Q120.94-6.28 120.56-6.23L120.56-6.23ZM123.47-5.77L123.47-5.77L123.47-5.77Q124.59-5.58 124.55-5.48L124.55-5.48L124.55-5.48Q124.55-5.44 124.50-5.34L124.50-5.34L124.50-5.34Q124.31-5.11 124.22-4.78L124.22-4.78L124.22-4.78Q123.84-2.95 123.47-1.59L123.47-1.59L124.59-1.83L124.55-1.03L124.55-1.03Q123.61-0.80 122.48-0.47L122.48-0.47L122.48-0.47Q121.13-0.05 120.80 0L120.80 0L120.80 0Q120.61-0.56 120.52-1.08L120.52-1.08L122.67-1.41L122.67-1.41Q123.28-3.89 123.47-5.77ZM121.27-5.44L122.16-5.53L122.16-5.53Q122.44-4.17 122.58-2.39L122.58-2.39L121.64-2.30L121.64-2.30Q121.50-4.03 121.27-5.44L121.27-5.44ZM131.39-5.53L131.39-5.53L131.39-4.64L131.39-4.64Q130.59-4.73 129.47-4.73L129.47-4.73L128.25-4.73L128.25-4.73Q128.16-4.36 127.92-3.66L127.92-3.66L129.33-3.66L129.33-3.66Q130.27-3.66 130.97-3.66L130.97-3.66L130.97-3.66Q130.88-2.91 130.88-2.20L130.88-2.20L130.88 0.14L130.88 0.14Q131.06 0.80 129.42 0.94L129.42 0.94L129.42 0.94Q129.38 0.33 129.09-0.05L129.09-0.05L129.09-0.05Q130.13 0.05 130.08-0.42L130.08-0.42L130.08-2.91L129-2.91L129-1.03L129-1.03Q129-0.56 129.05-0.14L129.05-0.14L128.20-0.14L128.20-0.14Q128.30-0.42 128.30-1.03L128.30-1.03L128.30-2.91L127.41-2.91L127.41-1.13L127.41-1.13Q127.41-0.14 127.45-0.09L127.45-0.09L126.61-0.09L126.61-0.09Q126.70-0.23 126.70-1.17L126.70-1.17L126.70-2.91L125.86-2.91L125.86-0.33L125.86-0.33Q125.86 0.70 125.91 0.75L125.91 0.75L124.97 0.75L124.97 0.75Q125.06 0.47 125.06-0.33L125.06-0.33L125.06-2.25L125.06-2.25Q125.06-3 124.97-3.70L124.97-3.70L124.97-3.70Q125.16-3.66 127.08-3.66L127.08-3.66L127.08-3.66Q127.17-3.84 127.27-4.50L127.27-4.50L127.27-4.50Q127.31-4.69 127.31-4.73L127.31-4.73L126.42-4.73L126.42-4.73Q126.05-4.73 125.44-4.69L125.44-4.69L125.44-4.69Q125.06-4.69 124.88-4.69L124.88-4.69L124.88-5.53L124.88-5.53Q125.48-5.48 126.47-5.48L126.47-5.48L129.47-5.48L129.47-5.48Q131.02-5.48 131.39-5.53ZM142.69-7.17L142.69-7.17L142.69-1.17L142.69-1.17Q142.69 0.47 142.73 1.03L142.73 1.03L141.61 1.03L141.61 1.03Q141.66 0.84 141.70 0.28L141.70 0.28L141.70 0.14L134.48 0.14L134.48 0.33L134.48 0.33Q134.48 0.84 134.53 1.03L134.53 1.03L133.36 1.03L133.36 1.03Q133.45 0.05 133.45-0.98L133.45-0.98L133.45-7.17L133.45-7.17Q133.41-8.34 133.36-9.28L133.36-9.28L133.36-9.28Q134.25-9.19 135.75-9.19L135.75-9.19L140.02-9.19L140.02-9.19Q141.94-9.23 142.73-9.33L142.73-9.33L142.73-9.33Q142.69-8.48 142.69-7.17ZM141.66-0.61L141.66-8.34L134.44-8.34L134.44-0.61L141.66-0.61ZM138.42-8.02L138.42-8.02L138.42-8.02Q139.45-8.02 139.55-7.88L139.55-7.88L139.55-7.88Q139.55-7.83 139.50-7.69L139.50-7.69L139.50-7.69Q139.41-7.50 139.41-7.36L139.41-7.36L139.41-6.52L139.73-6.52L139.73-6.52Q139.88-6.52 140.30-6.52L140.30-6.52L140.30-6.52Q140.91-6.56 141.14-6.56L141.14-6.56L141.14-5.63L141.14-5.63Q140.39-5.72 139.69-5.72L139.69-5.72L139.45-5.72L139.45-1.92L139.45-1.92Q139.45-1.08 137.53-0.89L137.53-0.89L137.53-0.89Q137.44-1.50 137.11-2.02L137.11-2.02L137.11-2.02Q138.52-1.83 138.52-2.34L138.52-2.34L138.52-5.25L138.52-5.25Q137.34-3.09 135.66-1.59L135.66-1.59L135.66-1.59Q135.38-1.97 134.81-2.30L134.81-2.30L134.81-2.30Q136.59-3.33 138-5.72L138-5.72L136.83-5.72L136.83-5.72Q135.61-5.72 135.14-5.67L135.14-5.67L135.14-6.56L135.14-6.56Q135.61-6.52 136.78-6.52L136.78-6.52L138.47-6.52L138.47-7.45L138.47-7.45Q138.47-7.78 138.42-8.02ZM151.08-9.38L151.08-9.38L151.08-9.38Q152.39-9.38 152.58-9.19L152.58-9.19L152.58-9.19Q152.58-9.14 152.53-9.09L152.53-9.09L152.53-9.09Q152.16-8.44 152.16-6.70L152.16-6.70L152.16-6.70Q152.30-1.73 155.58 0L155.58 0L155.58 0Q154.83 0.19 154.31 0.80L154.31 0.80L154.31 0.80Q151.83-1.50 151.78-4.88L151.78-4.88L151.78-4.88Q151.59-0.98 148.69 0.84L148.69 0.84L148.69 0.84Q148.31 0.38 147.42 0.14L147.42 0.14L147.42 0.14Q151.78-0.94 151.08-9.38ZM145.27-9.09L145.27-9.09L145.27-9.09Q145.55-9 146.53-9L146.53-9L148.31-9L148.31-9Q149.30-9 149.58-9.09L149.58-9.09L149.58-9.09Q148.88-7.13 148.03-5.48L148.03-5.48L148.03-5.48Q148.97-4.41 149.11-3.84L149.11-3.84L149.11-3.84Q149.81-1.55 147.09-1.08L147.09-1.08L147.09-1.08Q146.91-1.64 146.63-2.25L146.63-2.25L146.63-2.25Q146.58-2.39 146.58-2.39L146.58-2.39L146.58-2.39Q148.03-2.02 148.27-2.86L148.27-2.86L148.27-2.86Q148.41-4.08 147.05-5.30L147.05-5.30L147.05-5.30Q147.56-6.14 148.22-8.16L148.22-8.16L146.30-8.16L146.30-0.98L146.30-0.98Q146.30 0 146.39 0.70L146.39 0.70L146.39 0.70Q146.39 0.80 146.39 0.80L146.39 0.80L145.27 0.80L145.27 0.80Q145.27 0.80 145.27 0.70L145.27 0.70L145.27 0.70Q145.36 0 145.36-0.98L145.36-0.98L145.36-7.92L145.36-7.92Q145.36-8.77 145.27-9.09Z"></path>
            </g>
          </g>
        </g>
      </g>
    </g>
  </g>
</svg>